<?xml version="1.0" encoding="UTF-8"?>
<svg id="Layer_1" data-name="Layer 1" xmlns="http://www.w3.org/2000/svg" xmlns:xlink="http://www.w3.org/1999/xlink" viewBox="0 0 89 32">
  <defs>
    <style>
      .cls-1 {
        fill: none;
      }

      .cls-2 {
        fill: #5e00cc;
      }

      .cls-3 {
        clip-path: url(#clippath-1);
      }

      .cls-4 {
        fill: #fff;
      }

      .cls-5 {
        clip-path: url(#clippath);
      }
    </style>
    <clipPath id="clippath">
      <rect class="cls-1" width="88.87" height="32"/>
    </clipPath>
    <clipPath id="clippath-1">
      <rect class="cls-1" width="88.87" height="32"/>
    </clipPath>
  </defs>
  <g class="cls-5">
    <g class="cls-3">
      <path class="cls-2" d="M13.9,0C6.33-.14.13,5.88,0,13.39h0v17.81c0,.44.36.8.8.8h6.66c.44,0,.8-.36.8-.8v-4.49c0-.26.26-.43.5-.34,1.51.58,3.16.9,4.87.9,7.59,0,13.74-6.21,13.63-13.83C27.16,6.12,21.21.14,13.9,0Z"/>
      <path class="cls-4" d="M9.01,18.79c-1.2-1.28-1.79-3-1.79-5.16s.61-3.87,1.84-5.16c1.22-1.28,2.89-1.92,4.99-1.92,1.64,0,3,.47,4.09,1.4,1.08.94,1.71,2.17,1.9,3.69h-3.02c-.36-1.58-1.5-2.57-3.12-2.57-1.12,0-1.99.42-2.64,1.25-.65.85-.98,1.94-.98,3.31s.32,2.45.96,3.3c.64.85,1.52,1.26,2.62,1.26,1.66,0,2.8-.97,3.16-2.57h3c-.17,1.53-.81,2.75-1.92,3.68-1.12.94-2.53,1.41-4.22,1.41-2.05,0-3.67-.64-4.86-1.92Z"/>
      <path class="cls-4" d="M32.36,25.56c-.54-.58-.81-1.36-.81-2.34s.28-1.75.83-2.33c.55-.59,1.29-.88,2.22-.88.72,0,1.32.2,1.81.6s.78.93.88,1.61h-1.07c-.21-.81-.82-1.29-1.66-1.29-.6,0-1.07.21-1.42.63-.35.43-.53.98-.53,1.67s.17,1.23.52,1.66c.34.43.81.64,1.4.64.87,0,1.48-.48,1.68-1.29h1.07c-.1.67-.4,1.2-.9,1.6-.5.4-1.11.6-1.85.6-.92,0-1.64-.29-2.18-.88h0Z"/>
      <path class="cls-4" d="M40.13,26.43c-.71,0-1.27-.22-1.71-.65-.43-.43-.65-1-.65-1.71s.22-1.28.65-1.72c.43-.44,1-.65,1.7-.65s1.27.22,1.71.66c.44.44.65,1.01.65,1.71s-.22,1.28-.65,1.71c-.44.44-1.01.65-1.71.65h0ZM40.13,25.61c.41,0,.74-.15.99-.43.25-.29.37-.65.37-1.1s-.12-.82-.37-1.11c-.25-.29-.58-.43-.99-.43s-.73.14-.98.43c-.25.29-.37.65-.37,1.11s.12.82.37,1.11c.25.29.57.43.98.43h0Z"/>
      <path class="cls-4" d="M43.19,26.38v-6.32h.97v6.32h-.97Z"/>
      <path class="cls-4" d="M47.21,26.43c-.71,0-1.27-.22-1.71-.65-.43-.43-.65-1-.65-1.71s.22-1.28.65-1.72c.43-.44,1-.65,1.7-.65s1.27.22,1.71.66c.44.44.65,1.01.65,1.71s-.22,1.28-.65,1.71c-.44.44-1.01.65-1.71.65h0ZM47.21,25.61c.41,0,.74-.15.99-.43.25-.29.37-.65.37-1.1s-.12-.82-.37-1.11c-.25-.29-.58-.43-.99-.43s-.73.14-.98.43c-.25.29-.37.65-.37,1.11s.12.82.37,1.11c.25.29.57.43.98.43h0Z"/>
      <path class="cls-4" d="M57.31,23.72v2.66h-.97v-2.6c0-.81-.33-1.23-.97-1.23-.33,0-.6.12-.8.36-.2.24-.3.56-.3.98v2.5h-.98v-2.6c0-.81-.34-1.23-.98-1.23-.33,0-.6.12-.79.37s-.29.58-.29.99v2.47h-.97v-4.63h.85l.11.61c.33-.44.78-.66,1.35-.66.63,0,1.16.27,1.42.84.31-.53.85-.84,1.58-.84.96,0,1.73.55,1.73,2.02h0Z"/>
      <path class="cls-4" d="M62.16,22.34c.4.42.6,1,.6,1.73s-.2,1.27-.61,1.71c-.41.44-.93.65-1.57.65s-1.17-.24-1.51-.72l-.12.67h-.85v-6.32h.97v2.39c.37-.49.87-.74,1.5-.74s1.17.21,1.58.63h0ZM61.4,25.19c.25-.29.37-.66.37-1.12s-.12-.82-.37-1.11c-.25-.29-.58-.43-.98-.43s-.73.14-.97.42c-.25.29-.37.65-.37,1.1s.12.83.37,1.12c.25.29.57.43.97.43s.73-.14.98-.43h0Z"/>
      <path class="cls-4" d="M63.95,21.11c-.17,0-.31-.06-.42-.17-.11-.11-.17-.25-.17-.42s.06-.31.17-.42c.11-.11.25-.16.42-.16s.31.05.43.16c.11.11.17.25.17.42s-.06.31-.17.42c-.11.11-.26.17-.43.17ZM63.46,26.38v-4.63h.97v4.63h-.97Z"/>
      <path class="cls-4" d="M69.72,25.53v.85h-.52c-.6,0-.85-.26-.85-.74-.35.53-.86.79-1.53.79-.52,0-.93-.12-1.24-.36-.31-.24-.47-.57-.47-.99,0-.95.69-1.48,1.98-1.48h1.16v-.28c0-.52-.37-.83-1.01-.83-.57,0-.97.27-1.04.68h-.96c.05-.45.26-.81.62-1.07.37-.26.84-.39,1.42-.39,1.23,0,1.93.59,1.93,1.68v1.85c0,.22.09.3.3.3h.2ZM68.26,24.32h-1.21c-.63,0-.94.23-.94.7,0,.39.33.66.86.66.4,0,.71-.11.94-.33.22-.22.34-.5.35-.86v-.16h0Z"/>
      <path class="cls-4" d="M48.87,12.99c0,1.6-.56,2.38-1.86,2.38s-1.86-.78-1.86-2.38v-5.1h-2.62v5.1c0,3.38,1.82,4.53,4.47,4.53s4.47-1.15,4.47-4.53v-5.1h-2.62v5.1h0Z"/>
      <path class="cls-4" d="M36.47,4.43h-4.92v12.99h2.78v-3.99h2.13c2.93,0,4.86-1.76,4.86-4.49s-1.93-4.51-4.86-4.51h0ZM36.21,11.12h-1.88v-4.36h1.88c1.41,0,2.32.84,2.32,2.19s-.91,2.17-2.32,2.17Z"/>
      <path class="cls-4" d="M58.21,7.77c-1.47,0-2.34.56-2.95,1.31l-.24-1.2h-2.28v9.54h2.62v-4.88c0-1.65.78-2.62,2.13-2.62s1.93.85,1.93,2.47v5.03h2.62v-5.29c0-3.27-1.76-4.36-3.82-4.36h0Z"/>
      <path class="cls-4" d="M66.71,14.27v-4.18h2.19v-2.21h-2.19v-2.67h-2.62v2.67h-1.58v2.21h1.58v4.6c0,1.82.91,2.73,2.73,2.73h2.13v-2.21h-1.3c-.69,0-.95-.28-.95-.95Z"/>
      <path class="cls-4" d="M84.86,11.56c-1.37-.17-2.19-.24-2.19-.97,0-.61.67-.98,1.69-.98s1.78.46,1.86,1.23h2.51c-.13-1.95-1.89-3.08-4.45-3.08-2.45-.02-4.1,1.23-4.1,3.12s1.73,2.47,3.95,2.73c1.54.2,2.19.26,2.19,1.04,0,.67-.67,1.02-1.76,1.02-1.28,0-2-.58-2.1-1.41h-2.49c.11,2.04,1.91,3.29,4.57,3.29s4.34-1.21,4.34-3.1c0-2.15-1.82-2.65-4.01-2.88h0Z"/>
      <path class="cls-4" d="M74.41,17.61c-1.53,0-2.75-.45-3.67-1.35-.92-.89-1.38-2.08-1.38-3.55s.46-2.66,1.38-3.56c.92-.9,2.14-1.35,3.67-1.35s2.76.45,3.68,1.35c.92.9,1.38,2.09,1.38,3.56s-.46,2.67-1.38,3.56c-.92.89-2.15,1.34-3.68,1.34ZM74.41,15.47c.73,0,1.31-.25,1.75-.76.43-.51.65-1.17.65-1.99s-.22-1.48-.65-1.99c-.44-.51-1.02-.77-1.75-.77s-1.3.26-1.73.77c-.43.51-.64,1.17-.64,1.99s.21,1.48.64,1.99c.43.51,1,.76,1.73.76Z"/>
    </g>
  </g>
</svg>