<?xml version="1.0" encoding="UTF-8"?>
<svg id="Capa_1" data-name="Capa 1" xmlns="http://www.w3.org/2000/svg" viewBox="0 0 437.16 197.3">
  <defs>
    <style>
      .cls-1 {
        fill: #fff;
      }

      .cls-2 {
        fill: #1956dc;
      }
    </style>
  </defs>
  <rect class="cls-2" x="9.59" y="11.49" width="420.27" height="175.68" rx="20.95" ry="20.95"/>
  <g>
    <path class="cls-1" d="M145.4,66.07c0,2.3-2.52,4.31-7.57,6.01-3.12,1.11-6.01,1.82-8.69,2.12-12.55,1.49-26.32,4.27-41.31,8.35-.08,1.19-.41,2.71-1,4.56-.74,2.3-1.19,3.75-1.34,4.34-1.86,7.28-3.75,14.55-5.68,21.82-3.71,14.92-5.57,24.13-5.57,27.62l-.33,13.58c0,.96-1,1.74-3.01,2.34-1.49.45-2.67.67-3.56.67-4.08,0-6.12-3.3-6.12-9.91,0-3.12.78-8.24,2.34-15.37,1.26-5.94,2.38-10.39,3.34-13.36.59-1.71,1.52-6.68,2.78-14.92,1.41-8.76,2.12-14.55,2.12-17.37,0-1.48-.6-2.52-1.78-3.12l-19.26,1c-3.49.15-6.38.22-8.68.22-4.6,0-6.9-1.34-6.9-4.01,0-3.64,3.23-6.27,9.69-7.9,2.89-.74,5.42-1.11,7.57-1.11l37.96-1.78c7.72-2.15,14.66-3.75,20.82-4.79,8.17-1.41,15.26-2.08,21.26-2,.89,0,2.12.7,3.67,2.12,1.56,1.41,2.34,2.67,2.34,3.78Z"/>
    <path class="cls-1" d="M198.3,110.05c-.82,4.31-2.12,7.13-3.9,8.46-1.49,1.04-4.19,1.56-8.13,1.56-2.45,0-4.31-.18-5.57-.56-.74,4.83-1.49,9.65-2.23,14.48-2,8.76-4.94,13.14-8.8,13.14-3.04,0-4.56-2.82-4.56-8.46,0-3.04.45-6.88,1.34-11.53.89-4.64,1.34-6.85,1.34-6.62-.15-.15-.97-.06-2.45.28-1.49.33-2.38.5-2.67.5-1.04,0-4.68.52-10.91,1.56-7.5,1.19-13.18,2.34-17.04,3.45-1.19,1.63-2.93,3.94-5.23,6.9-2.3,2.97-4.6,6.01-6.9,9.13-2.67,3.19-5.64,4.79-8.91,4.79-4.75,0-7.13-2.26-7.13-6.79,0-3.71,2.12-8.61,6.35-14.7,4.23-6.09,8.13-10.5,11.69-13.25,0-.37-.04-1.04-.11-2,0-.81-.04-1.78-.11-2.89-.37-5.42-.41-8.98-.11-10.69.59-3.41,2.45-5.79,5.57-7.13,1.04-.44,2.23-.67,3.56-.67,3.49,0,5.23,2.15,5.23,6.46,0,1.71-.22,3.9-.67,6.57l-.22,1.89c1.93-.81,7.13-2.34,15.59-4.56,8.46-2.23,14.51-3.34,18.15-3.34,4.23,0,7.13,1.15,8.69,3.45.67,1.04,1.11,2.15,1.34,3.34h.22c.37-1.78.82-3.12,1.34-4.01,1.19-1.86,3.04-2.78,5.57-2.78s4.53.89,6.01,2.67c1.63,1.86,2.41,3.71,2.34,5.57Z"/>
    <path class="cls-1" d="M263.88,100.92c0,4.83-2.43,9.02-7.29,12.58-4.86,3.56-10.6,5.5-17.2,5.79-2,.08-4.83-.04-8.46-.33-4.08-.37-6.94-.56-8.57-.56-2.38,0-4.53.22-6.46.67-.45,1.11-1.52,4.83-3.23,11.14-1.93,7.35-2.9,12.32-2.9,14.92v9.58c0,.59-.22,1.41-.67,2.45-.59,1.34-1.26,2-2,2-2.15,0-4.01-.82-5.57-2.45-1.41-1.41-2.12-2.97-2.12-4.68s1.78-12.77,5.34-33.18c.67-3.64,1.71-9.28,3.12-16.92.22-1.63.48-3.27.78-4.9.37-2.08.89-3.75,1.56-5.01.82-.59,2.04-1.6,3.67-3.01.22-.07.56-.11,1-.11,2.82,0,4.83,1.11,6.01,3.34.52,1.04.78,2.04.78,3.01,0,.52-.04,1-.11,1.45,2.52-1.71,5.68-2.97,9.47-3.78,3.79-.81,7.39-1.22,10.8-1.22,5.57,0,11.25,1.74,17.04,5.23,4.16,2.52,6.24,5.27,6.24,8.24ZM248.51,104.04c0-3.04-3.19-4.56-9.58-4.56-3.49,0-7.5.93-12.02,2.78-4.53,1.86-6.79,3.34-6.79,4.45,0,1.19.81,1.85,2.45,2,1.04.15,3.09.22,6.12.22,7.87,0,13.55-.56,17.04-1.67,1.86-.59,2.78-1.63,2.78-3.23Z"/>
    <path class="cls-1" d="M332.36,105.37c-7.28,1.86-17.22,3.56-29.84,5.12-9.87,1.19-16.3,2.6-19.26,4.23-4.53,2.3-6.57,6.53-6.12,12.69.37.22,1.04.33,2,.33.89,0,2.28-.11,4.17-.33,1.89-.22,3.06-.33,3.51-.33.74,0,4.69-.85,11.86-2.56,7.16-1.71,11.08-2.56,11.75-2.56,2.15,0,3.71.19,4.68.56,1.71.74,3.3,2.41,4.79,5.01-2.45,4.6-8.95,9.17-19.49,13.7-10.02,4.31-18.41,6.46-25.17,6.46-4.6,0-7.94-.82-10.02-2.45-2.45-1.93-3.67-5.12-3.67-9.58,0-5.86,2.67-16.55,8.02-32.07,5.12-14.7,8.63-22.9,10.52-24.61,1.41-1.26,3.53-1.89,6.35-1.89,4.23,0,6.35,1.67,6.35,5.01,0,2.15-1.82,7.09-5.46,14.81-.81,1.71-2.08,4.46-3.79,8.24,8.98-1.34,17.63-2.71,25.95-4.12,8.32-1.41,12.84-2.12,13.58-2.12,4.3,0,7.43,1.19,9.36,3.56.97,1.26,1.45,2.12,1.45,2.56,0,.45-.37.93-1.11,1.34Z"/>
    <path class="cls-1" d="M391.93,105.37c-7.28,1.86-17.22,3.56-29.84,5.12-9.87,1.19-16.3,2.6-19.26,4.23-4.53,2.3-6.57,6.53-6.12,12.69.37.22,1.04.33,2,.33.89,0,2.28-.11,4.17-.33,1.89-.22,3.06-.33,3.51-.33.74,0,4.69-.85,11.86-2.56,7.16-1.71,11.08-2.56,11.75-2.56,2.15,0,3.71.19,4.68.56,1.71.74,3.3,2.41,4.79,5.01-2.45,4.6-8.95,9.17-19.49,13.7-10.02,4.31-18.41,6.46-25.17,6.46-4.6,0-7.94-.82-10.02-2.45-2.45-1.93-3.67-5.12-3.67-9.58,0-5.86,2.67-16.55,8.02-32.07,5.12-14.7,8.63-22.9,10.52-24.61,1.41-1.26,3.53-1.89,6.35-1.89,4.23,0,6.35,1.67,6.35,5.01,0,2.15-1.82,7.09-5.46,14.81-.81,1.71-2.08,4.46-3.79,8.24,8.98-1.34,17.63-2.71,25.95-4.12,8.32-1.41,12.84-2.12,13.58-2.12,4.3,0,7.43,1.19,9.36,3.56.97,1.26,1.45,2.12,1.45,2.56,0,.45-.37.93-1.11,1.34Z"/>
  </g>
  <path class="cls-1" d="M306.33,59.41s-10.99,10.09.4,9.61c0,0,14.45-10.75,39.92-3.86,25.47,6.89,3.56-7.58,3.56-7.58,0,0-13.58-9.41-43.88,1.82Z"/>
  <path class="cls-1" d="M302.58,42.24s-13.95,11.31.11,11.18c0,0,18.24-11.96,49.36-3.02,31.12,8.93,4.7-8.67,4.7-8.67,0,0-16.36-11.42-54.16.52Z"/>
</svg>
